<?xml version="1.0" encoding="UTF-8"?>
<!--
DATA TRACE (diagram_04_logit_lens_ratios.svg) — single idea: all 24 relative-divergence ratios
cluster near 1.0 — no pair diverges meaningfully more from its partner than from neutral alone.
Source: diagram_jsons/diagram_04_logit_lens_ratios.json

  reference line y=1.0     -> reference_line
  24 dot values              -> pairs[*].L12 / .L16 / .L20
  8 pair labels              -> pairs keys
-->
<svg width="848" height="480" viewBox="0 0 848 480" xmlns="http://www.w3.org/2000/svg">
  <style>
    @import url('https://fonts.googleapis.com/css2?family=EB+Garamond:ital,wght@0,400&amp;family=Inter:wght@400;500&amp;display=swap');
  </style>
  <rect x="0" y="0" width="848" height="480" fill="#fffff8"/>

  <!-- L-shaped axes -->
  <line x1="48" y1="40" x2="48" y2="360" stroke="#111111" stroke-width="1"/>
  <line x1="48" y1="360" x2="768" y2="360" stroke="#111111" stroke-width="1"/>

  <text x="40" y="364.0" font-family="Inter, sans-serif" font-size="12" fill="#555555" text-anchor="end">0.90</text>
  <text x="40" y="306.9" font-family="Inter, sans-serif" font-size="12" fill="#555555" text-anchor="end">0.95</text>
  <text x="40" y="249.7" font-family="Inter, sans-serif" font-size="12" fill="#555555" text-anchor="end">1.00</text>
  <text x="40" y="192.6" font-family="Inter, sans-serif" font-size="12" fill="#555555" text-anchor="end">1.05</text>
  <text x="40" y="135.4" font-family="Inter, sans-serif" font-size="12" fill="#555555" text-anchor="end">1.10</text>
  <text x="40" y="78.3" font-family="Inter, sans-serif" font-size="12" fill="#555555" text-anchor="end">1.15</text>

  <text x="12" y="200.0" font-family="EB Garamond, serif" font-style="italic" font-size="13" fill="#555555" text-anchor="middle" transform="rotate(-90 12 200.0)">ratio</text>

  <!-- reference line at 1.0 -->
  <line x1="48" y1="245.7" x2="768" y2="245.7" stroke="#cccccc" stroke-width="1" stroke-dasharray="6,4"/>
  <text x="774" y="243.7" font-family="EB Garamond, serif" font-style="italic" font-size="11" fill="#555555">1.0</text>
  <text x="774" y="257.7" font-family="EB Garamond, serif" font-style="italic" font-size="11" fill="#555555">divergence</text>

  <circle cx="79.0" cy="254.9" r="5" fill="#111111"/>
  <circle cx="93.0" cy="235.4" r="5" fill="#777777"/>
  <circle cx="107.0" cy="277.7" r="5" fill="#cccccc" stroke="#555555" stroke-width="1.5"/>
  <circle cx="169.0" cy="224.0" r="5" fill="#111111"/>
  <circle cx="183.0" cy="205.7" r="5" fill="#777777"/>
  <circle cx="197.0" cy="241.1" r="5" fill="#cccccc" stroke="#555555" stroke-width="1.5"/>
  <circle cx="259.0" cy="250.3" r="5" fill="#111111"/>
  <circle cx="273.0" cy="161.1" r="5" fill="#777777"/>
  <circle cx="287.0" cy="206.9" r="5" fill="#cccccc" stroke="#555555" stroke-width="1.5"/>
  <circle cx="349.0" cy="202.3" r="5" fill="#111111"/>
  <circle cx="363.0" cy="121.1" r="5" fill="#777777"/>
  <circle cx="377.0" cy="147.4" r="5" fill="#cccccc" stroke="#555555" stroke-width="1.5"/>
  <circle cx="439.0" cy="213.7" r="5" fill="#111111"/>
  <circle cx="453.0" cy="144.0" r="5" fill="#777777"/>
  <circle cx="467.0" cy="235.4" r="5" fill="#cccccc" stroke="#555555" stroke-width="1.5"/>
  <circle cx="529.0" cy="256.0" r="5" fill="#111111"/>
  <circle cx="543.0" cy="181.7" r="5" fill="#777777"/>
  <circle cx="557.0" cy="258.3" r="5" fill="#cccccc" stroke="#555555" stroke-width="1.5"/>
  <circle cx="619.0" cy="249.1" r="5" fill="#111111"/>
  <circle cx="633.0" cy="72.0" r="5" fill="#777777"/>
  <circle cx="647.0" cy="341.7" r="5" fill="#cccccc" stroke="#555555" stroke-width="1.5"/>
  <circle cx="709.0" cy="230.9" r="5" fill="#111111"/>
  <circle cx="723.0" cy="172.6" r="5" fill="#777777"/>
  <circle cx="737.0" cy="181.7" r="5" fill="#cccccc" stroke="#555555" stroke-width="1.5"/>

  <text x="93.0" y="382" font-family="EB Garamond, serif" font-size="11" fill="#555555" text-anchor="middle">Guilt</text>
  <text x="93.0" y="396" font-family="EB Garamond, serif" font-size="11" fill="#555555" text-anchor="middle">vs Shame</text>
  <text x="183.0" y="382" font-family="EB Garamond, serif" font-size="11" fill="#555555" text-anchor="middle">Longing</text>
  <text x="183.0" y="396" font-family="EB Garamond, serif" font-size="11" fill="#555555" text-anchor="middle">vs Nostalgia</text>
  <text x="273.0" y="382" font-family="EB Garamond, serif" font-size="11" fill="#555555" text-anchor="middle">Guilt</text>
  <text x="273.0" y="396" font-family="EB Garamond, serif" font-size="11" fill="#555555" text-anchor="middle">vs Regret</text>
  <text x="363.0" y="382" font-family="EB Garamond, serif" font-size="11" fill="#555555" text-anchor="middle">Hope</text>
  <text x="363.0" y="396" font-family="EB Garamond, serif" font-size="11" fill="#555555" text-anchor="middle">vs Dread</text>
  <text x="453.0" y="382" font-family="EB Garamond, serif" font-size="11" fill="#555555" text-anchor="middle">Regret</text>
  <text x="453.0" y="396" font-family="EB Garamond, serif" font-size="11" fill="#555555" text-anchor="middle">vs Sadness</text>
  <text x="543.0" y="382" font-family="EB Garamond, serif" font-size="11" fill="#555555" text-anchor="middle">Relief</text>
  <text x="543.0" y="396" font-family="EB Garamond, serif" font-size="11" fill="#555555" text-anchor="middle">vs Hope</text>
  <text x="633.0" y="382" font-family="EB Garamond, serif" font-size="11" fill="#555555" text-anchor="middle">Shame</text>
  <text x="633.0" y="396" font-family="EB Garamond, serif" font-size="11" fill="#555555" text-anchor="middle">vs Sadness</text>
  <text x="723.0" y="382" font-family="EB Garamond, serif" font-size="11" fill="#555555" text-anchor="middle">Relief</text>
  <text x="723.0" y="396" font-family="EB Garamond, serif" font-size="11" fill="#555555" text-anchor="middle">vs Nostalgia</text>

  <!-- layer legend -->
  <circle cx="48" cy="452" r="5" fill="#111111"/>
  <text x="60" y="456" font-family="Inter, sans-serif" font-size="12" fill="#555555">L12</text>
  <circle cx="108" cy="452" r="5" fill="#777777"/>
  <text x="120" y="456" font-family="Inter, sans-serif" font-size="12" fill="#555555">L16</text>
  <circle cx="168" cy="452" r="5" fill="#cccccc" stroke="#555555" stroke-width="1.5"/>
  <text x="180" y="456" font-family="Inter, sans-serif" font-size="12" fill="#555555">L20</text>
</svg>
